<svg xmlns="http://www.w3.org/2000/svg" viewBox="0 0 111 111" fill="none"><g clip-path="url(#a)"><path stroke="#E0EEEE" d="m52.365.73 2.856-.075 2.856.075 2.847.224 2.833.373 2.809.52 2.777.668 2.74.81 2.692.954 2.64 1.094 2.578 1.23 2.51 1.363 2.436 1.492 2.354 1.618 2.267 1.74 2.172 1.855 2.072 1.966 1.967 2.072 1.855 2.172 1.739 2.267 1.618 2.354 1.493 2.436 1.363 2.51 1.229 2.579 1.094 2.639.953 2.693.812 2.739.666 2.778.521 2.809.373 2.832.224 2.848.075 2.855-.075 2.856-.224 2.848-.373 2.832-.521 2.81-.666 2.777-.812 2.739-.953 2.693-1.094 2.64-1.229 2.578-1.363 2.51-1.493 2.436-1.618 2.354-1.74 2.266-1.854 2.173-1.967 2.072-2.072 1.966-2.172 1.856-2.267 1.739-2.354 1.618-2.436 1.493-2.51 1.363-2.579 1.229-2.639 1.094-2.693.953-2.739.812-2.777.666-2.81.521-2.832.373-2.847.224-2.856.075-2.856-.075-2.848-.224-2.832-.373-2.81-.521-2.777-.666-2.739-.812-2.693-.953-2.639-1.094-2.578-1.229-2.51-1.363-2.437-1.493-2.354-1.618-2.266-1.74-2.173-1.855-2.072-1.966-1.966-2.072-1.855-2.173-1.74-2.266-1.618-2.354-1.492-2.436-1.363-2.51-1.23-2.579-1.093-2.64-.954-2.692-.811-2.739-.667-2.778-.52-2.809-.374-2.832-.224-2.848-.074-2.856.074-2.855.224-2.848.373-2.832.52-2.81.668-2.777.811-2.74.954-2.692 1.093-2.64 1.23-2.578 1.363-2.51 1.492-2.436 1.619-2.354 1.739-2.267 1.855-2.172 1.966-2.072 2.072-1.966 2.173-1.856 2.266-1.739 2.354-1.618 2.436-1.492 2.51-1.363 2.58-1.23 2.638-1.094 2.693-.953 2.74-.811 2.777-.667 2.809-.52 2.832-.374L52.365.73Z"/><path stroke="#E0EEEE" d="m82.477 69.109-.764 1.407-.837 1.366-.907 1.32-.975 1.27-1.04 1.218-1.103 1.162-1.161 1.102-1.218 1.04-1.27.975-1.32.907-1.366.837-1.408.765-1.445.689-1.48.613-1.51.534-1.535.455-1.557.374-1.575.292-1.588.21-1.596.125-1.602.042-1.6-.042-1.597-.126-1.588-.209-1.575-.292-1.557-.374-1.536-.455-1.51-.534-1.479-.613-1.445-.69-1.408-.764-1.365-.837-1.32-.907-1.27-.975-1.219-1.04-1.161-1.102-1.103-1.162-1.04-1.218-.975-1.27-.907-1.32-.837-1.366-.764-1.407-.69-1.446-.612-1.48-.535-1.509-.455-1.536-.374-1.557-.291-1.575-.21-1.587-.125-1.597-.042-1.601.042-1.6.125-1.598.21-1.587.291-1.575.374-1.557.455-1.536.535-1.51.613-1.48.69-1.445.763-1.407.837-1.366.907-1.32.975-1.27 1.04-1.218 1.103-1.162 1.161-1.102 1.218-1.04 1.27-.975 1.32-.907 1.366-.837 1.408-.764 1.445-.69 1.48-.613 1.51-.534 1.535-.455 1.557-.374 1.575-.292 1.588-.209 1.596-.126 1.602-.042 1.6.042 1.597.126 1.588.209 1.575.292 1.557.374 1.536.455 1.51.534 1.479.613 1.445.69 1.408.764 1.365.837 1.32.907 1.27.975 1.219 1.04 1.161 1.102 1.103 1.162 1.04 1.218.975 1.27.907 1.32.837 1.366.764 1.407.69 1.446.612 1.48.535 1.509.455 1.536.374 1.557.291 1.575.21 1.587.125 1.597.042 1.601-.042 1.601-.126 1.597-.209 1.588-.291 1.574-.374 1.557-.455 1.536-.535 1.51-.613 1.48-.69 1.445Z"/><g style="transform-origin:center"><animateTransform attributeName="transform" attributeType="XML" type="rotate" from="0" to="360" dur="5s" repeatCount="indefinite"/><path fill="#E0EEEE" d="M53.486 96.75c.142 0 .264.05.366.152a.499.499 0 0 1 .153.366c0 .142-.051.263-.153.365a.499.499 0 0 1-.366.153.499.499 0 0 1-.365-.153.499.499 0 0 1-.153-.365.539.539 0 0 1 .259-.449.493.493 0 0 1 .26-.07ZM42.688 92.411l-2.334 6.026-.73-.283 2.084-5.378-2.801-1.085.25-.648 3.531 1.368ZM36.425 89.64l-3.402 5.494-3.316-2.053.366-.59 2.65 1.641 1.15-1.856-2.48-1.535.366-.59 2.479 1.535 1.156-1.868-2.694-1.667.366-.59 3.359 2.08ZM26.979 90.2l-.468.514-3.582-3.265.468-.513 1.502 1.368 3.886-4.262.578.527-3.886 4.263L26.98 90.2ZM18.722 82.424l1.772-1.339.419.554-1.773 1.339-.418-.554ZM15.417 73.673a.99.99 0 0 0-.461.744c-.038.32.03.655.204 1.005.128.256.28.46.46.61a1.2 1.2 0 0 0 .563.277.915.915 0 0 0 .573-.088.789.789 0 0 0 .344-.309c.071-.13.115-.271.13-.424a2.306 2.306 0 0 0-.005-.456 5.083 5.083 0 0 0-.065-.408l-.135-.666a5.74 5.74 0 0 1-.086-.585 2.601 2.601 0 0 1 .02-.675c.032-.23.115-.448.246-.652.13-.204.332-.373.603-.508.313-.156.636-.215.97-.177.333.037.651.174.956.413.303.236.566.577.787 1.021.206.414.318.806.335 1.176.017.368-.052.698-.205.99-.153.29-.383.526-.688.706l-.36-.723c.21-.127.353-.29.433-.49.076-.2.1-.417.071-.65a2.223 2.223 0 0 0-.219-.694 2.118 2.118 0 0 0-.488-.655 1.38 1.38 0 0 0-.62-.323.971.971 0 0 0-.646.09.758.758 0 0 0-.388.394 1.32 1.32 0 0 0-.083.57c.012.212.04.434.085.666l.15.813c.096.516.089.966-.021 1.35-.11.384-.36.673-.75.867-.323.16-.65.214-.978.159a1.949 1.949 0 0 1-.919-.43 2.687 2.687 0 0 1-.703-.902 2.622 2.622 0 0 1-.294-1.094 1.92 1.92 0 0 1 .2-.96c.143-.285.36-.505.646-.66l.338.678ZM10.965 61.965l-.691.064-.447-4.826.69-.064.188 2.023 5.744-.532.072.78-5.744.532.188 2.023ZM16.325 53.536l-.076.817-6.216-2.959.075-.804 6.653-1.766-.075.817-5.595 1.42-.005.05 5.239 2.425Zm-2.486-.534.305-3.293.691.064-.305 3.293-.69-.064ZM17.4 46.157l-6.215-1.768.214-.753 5.548 1.578.822-2.889.668.19-1.037 3.642ZM19.474 39.882l-5.784-2.88.348-.7 2.87 1.428.034-.068-1.576-4.027.456-.915 1.4 3.728 4.384-.848-.422.847-3.69.673.453 1.128 1.876.934-.349.7ZM26.776 19.875l4.353 4.775-.56.51-6.02-1.377-.046.042 3.418 3.75-.578.527-4.354-4.775.56-.51 6.038 1.378.047-.043-3.427-3.759.569-.518ZM35.74 17.813c.36.58.565 1.145.617 1.697a2.772 2.772 0 0 1-.257 1.51 2.708 2.708 0 0 1-1.037 1.117c-.469.29-.956.433-1.463.43a2.77 2.77 0 0 1-1.466-.443c-.47-.293-.885-.729-1.244-1.308-.358-.58-.564-1.145-.616-1.697a2.772 2.772 0 0 1 .257-1.51 2.708 2.708 0 0 1 1.037-1.117c.469-.29.956-.433 1.463-.43.506.003.995.15 1.466.443.47.292.885.728 1.244 1.308Zm-.643.399c-.295-.476-.623-.828-.985-1.057-.36-.23-.727-.345-1.101-.346-.372-.002-.725.1-1.058.306a1.972 1.972 0 0 0-.747.812c-.165.334-.225.714-.182 1.14.046.424.216.875.51 1.35.295.476.622.829.982 1.059.362.228.729.344 1.101.346.375 0 .728-.102 1.06-.308.333-.206.582-.476.746-.81.166-.335.226-.715.18-1.14-.043-.426-.212-.877-.506-1.352ZM39.386 19.698l-3.982-5.388.741-.287 3.16 4.42.06-.023-.619-5.405.824-.319 3.184 4.41.059-.022-.642-5.395.741-.288.687 6.664-.753.292-3.19-4.286-.047.018.53 5.317-.753.292ZM46.382 10.797l.327 4.868-.767.062-.459-4.857.899-.072Zm.101 6.854a.574.574 0 0 1-.433-.14.574.574 0 0 1-.21-.406.574.574 0 0 1 .142-.434.574.574 0 0 1 .405-.209.574.574 0 0 1 .434.142.574.574 0 0 1 .209.405.62.62 0 0 1-.256.54.568.568 0 0 1-.29.102ZM57.553 13.358a.507.507 0 0 1-.372-.155.507.507 0 0 1-.155-.372c0-.144.052-.268.155-.371a.506.506 0 0 1 .372-.155c.144 0 .268.051.371.155a.507.507 0 0 1 .155.371.547.547 0 0 1-.263.456.502.502 0 0 1-.264.07ZM68.139 18.418l2.334-6.025.73.282-2.084 5.379 2.801 1.085-.25.647-3.531-1.368ZM74.402 21.19l3.402-5.495 3.316 2.053-.366.59-2.65-1.64-1.15 1.856 2.479 1.535-.366.59-2.478-1.535-1.156 1.867 2.693 1.668-.366.59-3.358-2.08ZM83.849 20.63l.467-.514 3.582 3.265-.468.513-1.502-1.369-3.885 4.263-.579-.527 3.886-4.263-1.501-1.369ZM92.106 28.405l-1.773 1.34-.418-.555 1.772-1.338.419.553ZM95.41 37.156a.991.991 0 0 0 .461-.744c.038-.32-.03-.655-.204-1.005a1.884 1.884 0 0 0-.46-.61 1.2 1.2 0 0 0-.563-.277.916.916 0 0 0-.573.088.788.788 0 0 0-.344.309c-.071.13-.115.271-.13.425-.014.152-.012.304.005.455.018.15.04.287.065.408l.135.666c.035.17.064.365.086.585.023.22.017.446-.02.676-.032.23-.115.447-.246.651-.13.204-.332.373-.603.508a1.7 1.7 0 0 1-.97.177 1.868 1.868 0 0 1-.956-.413c-.303-.236-.566-.577-.787-1.021-.206-.414-.318-.806-.335-1.176a1.917 1.917 0 0 1 .204-.99c.154-.29.384-.526.689-.706l.36.723a1.012 1.012 0 0 0-.433.49c-.076.2-.1.417-.071.65.031.233.104.464.219.694.133.267.296.486.488.655.195.17.4.277.62.323.22.046.435.016.646-.089a.757.757 0 0 0 .388-.394 1.32 1.32 0 0 0 .083-.57 4.99 4.99 0 0 0-.085-.667l-.15-.813c-.096-.516-.089-.966.021-1.35.11-.384.36-.672.75-.867.323-.16.65-.214.977-.159.331.056.638.2.92.43.284.232.519.533.702.902.186.373.284.738.295 1.094.013.356-.054.675-.2.96-.144.285-.36.505-.647.66l-.337-.678ZM99.862 48.864l.691-.064.447 4.826-.691.064-.187-2.024-5.744.533-.072-.78 5.743-.532-.187-2.023ZM94.503 57.293l.075-.817 6.216 2.959-.075.804-6.653 1.767.076-.817 5.594-1.421.005-.05-5.238-2.425Zm2.485.535-.305 3.292-.691-.064.305-3.292.691.063ZM93.426 64.672l6.216 1.769-.214.752-5.548-1.578-.822 2.89-.668-.19 1.036-3.643ZM91.353 70.947l5.785 2.88-.349.7-2.87-1.428-.033.067 1.575 4.028-.455.915-1.4-3.728-4.385.848.422-.848 3.69-.672-.453-1.128-1.876-.934.35-.7ZM84.051 90.954l-4.353-4.775.56-.51 6.02 1.377.046-.043-3.418-3.75.579-.526 4.353 4.775-.56.51-6.038-1.378-.046.043 3.426 3.758-.569.52ZM75.086 93.017c-.359-.58-.564-1.145-.616-1.697a2.77 2.77 0 0 1 .256-1.51 2.709 2.709 0 0 1 1.038-1.117c.469-.29.956-.434 1.463-.43.506.002.995.15 1.465.442.471.293.886.729 1.245 1.308.358.58.564 1.145.616 1.697a2.77 2.77 0 0 1-.257 1.51 2.71 2.71 0 0 1-1.037 1.117c-.469.29-.956.434-1.463.43a2.771 2.771 0 0 1-1.466-.442c-.47-.293-.885-.729-1.244-1.308Zm.644-.399c.295.476.623.828.985 1.057.36.23.727.345 1.1.346.373.002.726-.1 1.058-.306a1.97 1.97 0 0 0 .748-.812c.165-.334.225-.714.181-1.14-.045-.425-.215-.875-.51-1.35-.294-.477-.621-.83-.981-1.06-.362-.228-.73-.343-1.102-.345-.374-.001-.727.101-1.06.307a1.956 1.956 0 0 0-.745.81c-.166.336-.226.716-.181 1.14.043.427.212.877.507 1.353ZM71.441 91.132l3.982 5.388-.741.287-3.16-4.42-.06.023.619 5.404-.824.32-3.184-4.411-.059.023.642 5.395-.741.287-.687-6.663.753-.292 3.19 4.286.047-.018-.53-5.317.753-.292ZM65.167 100.108l-.43-4.86-.767.058.299 4.87.898-.068Zm-.96-6.787a.574.574 0 0 0-.407.207.574.574 0 0 0-.143.433.574.574 0 0 0 .206.406c.126.108.27.156.433.144a.574.574 0 0 0 .407-.207.573.573 0 0 0 .143-.433.619.619 0 0 0-.336-.493.569.569 0 0 0-.303-.057Z"/></g><path fill="#C5FCFC" d="M62.114 68.905h-.771l-5.029-2.782a1.58 1.58 0 0 0-1.523 0l-5.028 2.782h-.771c-.11 0-.198.089-.198.196v1.004c0 1.14.635 2.195 1.657 2.707 1.596.801 3.314 1.238 5.1 1.238 1.787 0 3.505-.437 5.104-1.24a3.025 3.025 0 0 0 1.655-2.707V69.1a.197.197 0 0 0-.198-.196h.002Z"/><path fill="#C5FCFC" d="m71.754 49.567-.788-.7-.965-.856-.625-.554-.087-.077a1.098 1.098 0 0 0-1.19-.174h-.012l-4.563 2.527a1.568 1.568 0 0 0-.722.856l-1.028 2.918a.053.053 0 0 1-.044.034.05.05 0 0 1-.055-.046l-.243-2.936a1.787 1.787 0 0 0-.68-1.259l-2.968-2.317a.051.051 0 0 1-.018-.052.05.05 0 0 1 .06-.039l2.279.514a5.133 5.133 0 0 0 3.591-.504l4.31-2.36c.409-.222.664-.65.664-1.116v-2.624c0-.383-.144-.751-.4-1.032a17.215 17.215 0 0 0-4.645-3.592 1.523 1.523 0 0 0-1.444.008l-6.054 3.3c-.18.098-.377.146-.575.144a1.19 1.19 0 0 1-.573-.144l-6.056-3.3a1.524 1.524 0 0 0-1.445-.008 17.214 17.214 0 0 0-4.643 3.592c-.257.28-.4.65-.4 1.032v2.624c0 .465.254.892.663 1.117l4.31 2.36a5.133 5.133 0 0 0 3.591.503l2.277-.514a.052.052 0 0 1 .06.039.058.058 0 0 1-.018.052L50.352 49.3a1.78 1.78 0 0 0-.68 1.259l-.243 2.936c0 .028-.026.048-.055.046-.02 0-.038-.016-.044-.034l-1.028-2.918a1.569 1.569 0 0 0-.722-.856l-4.563-2.53h-.012a1.1 1.1 0 0 0-1.188.177l-.087.077-.625.554-.963.856-.788.7a1.271 1.271 0 0 0-.255 1.38c.674 1.586 1.433 3.628 2.273 5.214a12.72 12.72 0 0 0 .239.433c.044.075.085.154.129.23.012.02.026.04.049.052.076.056.186.04.242-.037l.565-.769a.035.035 0 0 1 .049-.006.04.04 0 0 1 .014.03v.003a30.295 30.295 0 0 0-.273 6.02c.012.388.167.758.44 1.033a19.645 19.645 0 0 0 5.205 3.77c.346.168.753.158 1.089-.03l4.692-2.596a1.18 1.18 0 0 0 .61-1.036v-1.779a.393.393 0 0 0-.167-.322l-4.747-3.346a.392.392 0 0 1-.168-.322v-.78a.12.12 0 0 1 .144-.117l5.402 1.198a3.113 3.113 0 0 0 1.34 0l5.402-1.198.027-.002a.12.12 0 0 1 .119.12v.779a.393.393 0 0 1-.168.322l-4.745 3.346a.395.395 0 0 0-.168.322v1.779c0 .43.233.827.611 1.036l4.692 2.596c.336.186.743.196 1.09.03a19.635 19.635 0 0 0 5.201-3.77c.273-.275.431-.645.441-1.034a30.004 30.004 0 0 0-.273-6.02l.002-.001c0-.012.004-.025.013-.03.016-.013.038-.009.048.005l.565.77a.174.174 0 0 0 .242.036.173.173 0 0 0 .049-.053c.044-.075.085-.154.127-.229l.019-.024c.075-.131.147-.269.222-.409.84-1.584 1.599-3.626 2.272-5.214a1.274 1.274 0 0 0-.257-1.38h-.003Z"/></g><defs><clipPath id="a"><path fill="#fff" d="M0 0h111v111H0z"/></clipPath></defs></svg>